# xmcd
#
# Track frame offsets:
#	150
#	17574
#	35113
#	41223
#	44758
#	53743
#	56898
#	70522
#	86201
#	99720
#	104693
#	106593
#	116122
#	118416
#	123232
#	133711
#	136445
#	146332
#	148178
#	163329
#	165074
#	170340
#	177660
#	188527
#	193794
#	206417
#	210572
#	214735
#	228987
#	246321
#	254040
#	269546
#	279051
#	291579
#	295301
#
# Disc length: 4144 seconds
#
# Revision: 1
# Processed by: cddbd v1.5.2PL0 Copyright (c) Steve Scherf et al.
# Submitted via: audiograbber 1.81.02
#
DISCID=32102e23
DTITLE=Jugendchor OnLine - an der Schwelle zu morgen - edge of tomorrow
DYEAR=2006
DGENRE=Musical
TTITLE0=Sieh her
TTITLE1=Bin ich es?
TTITLE2=Mein Gefühl
TTITLE3=Bitt' schön Kuchen!
TTITLE4=Hudsons Referat
TTITLE5=Herzlos
TTITLE6=Der Start
TTITLE7=Du führst über Berge
TTITLE8=An der Schwelle zu morgen (Teil 1)
TTITLE9=Angekommen
TTITLE10=Fürchterlich
TTITLE11=Die Mode
TTITLE12=Wie kann es sein?
TTITLE13=Sei nicht stur
TTITLE14=Wenn die Welt
TTITLE15=Ein neuer Tag (Teil 1)
TTITLE16=Der erste Schritt
TTITLE17=Ein neuer Tag (Teil 2)
TTITLE18=Stern in der Nacht (Teil 1)
TTITLE19=Welch ein Tag
TTITLE20=Was ist los?
TTITLE21=Danke für deine Worte
TTITLE22=Wo bist du?
TTITLE23=Stern in der Nacht (Teil 2)
TTITLE24=Ein neues Jahr
TTITLE25=Der ständige Kampf
TTITLE26=Ein Brief von Berger
TTITLE27=Ich kämpfte
TTITLE28=Ich geh zurück
TTITLE29=Ganz am Boden
TTITLE30=Maria
TTITLE31=Die Tür zum Garten
TTITLE32=Führ mich Herr
TTITLE33=Das Privileg
TTITLE34=An der Schwelle zu morgen (Finale)
EXTD=
EXTT0=
EXTT1=
EXTT2=
EXTT3=
EXTT4=
EXTT5=
EXTT6=
EXTT7=
EXTT8=
EXTT9=
EXTT10=
EXTT11=
EXTT12=
EXTT13=
EXTT14=
EXTT15=
EXTT16=
EXTT17=
EXTT18=
EXTT19=
EXTT20=
EXTT21=
EXTT22=
EXTT23=
EXTT24=
EXTT25=
EXTT26=
EXTT27=
EXTT28=
EXTT29=
EXTT30=
EXTT31=
EXTT32=
EXTT33=
EXTT34=
PLAYORDER=
